<svg width="24" height="24" viewBox="0 0 24 24" fill="none" xmlns="http://www.w3.org/2000/svg">
<g clip-path="url(#clip0_4041_546)">
<rect width="24" height="24" fill="url(#paint0_linear_4041_546)"/>
<path d="M23.9245 10.6678C23.8866 10.3304 23.4931 10.0767 23.1529 10.0767C22.0533 10.0767 21.0775 9.4313 20.6682 8.43241C20.2504 7.40955 20.52 6.21688 21.3392 5.46533C21.5972 5.22941 21.6287 4.83438 21.4124 4.56016C20.8494 3.84545 20.2099 3.19977 19.5113 2.64023C19.2381 2.42102 18.8365 2.45153 18.5993 2.71402C17.8841 3.50616 16.5993 3.80051 15.6064 3.38628C14.5736 2.95171 13.9217 1.90476 13.9857 0.781012C14.0068 0.42781 13.7485 0.120899 13.3966 0.0799012C12.5001 -0.0238902 11.5958 -0.0269002 10.6968 0.0728434C10.3493 0.111246 10.0912 0.410892 10.1028 0.759631C10.1417 1.87238 9.4824 2.90085 8.45954 3.31985C7.4786 3.72059 6.2027 3.42842 5.48892 2.64324C5.25301 2.38459 4.8585 2.35283 4.58334 2.56737C3.86428 3.13168 3.21029 3.77778 2.64213 4.48668C2.42075 4.76224 2.45344 5.16163 2.71365 5.39838C3.54906 6.15492 3.8184 7.35786 3.38466 8.39266C2.97053 9.3792 1.94621 10.0147 0.77368 10.0147C0.393181 10.0025 0.122389 10.2581 0.0803536 10.6041C-0.0250985 11.5054 -0.0262402 12.4241 0.0752678 13.3327C0.113152 13.6715 0.51825 13.9231 0.862214 13.9231C1.90739 13.8965 2.91023 14.5431 3.33152 15.5672C3.75073 16.5901 3.48087 17.7823 2.6603 18.5348C2.40362 18.7708 2.37082 19.1649 2.58754 19.4388C3.14479 20.149 3.78498 20.7951 4.48557 21.3594C4.76062 21.5809 5.16063 21.5499 5.39904 21.2871C6.11707 20.4931 7.4017 20.1992 8.39052 20.6143C9.42635 21.0477 10.078 22.0946 10.0143 23.2186C9.99347 23.5718 10.2523 23.8797 10.603 23.9198C11.0618 23.9734 11.5229 24 11.9855 24C12.4246 24 12.8637 23.976 13.3029 23.9271C13.6508 23.8887 13.9084 23.5888 13.8967 23.2399C13.8565 22.1277 14.5172 21.0991 15.5388 20.6809C16.5263 20.2776 17.7965 20.5728 18.5107 21.3568C18.7479 21.615 19.14 21.6463 19.4163 21.4326C20.1341 20.8697 20.7868 20.2239 21.3575 19.5132C21.5791 19.2381 21.5476 18.8382 21.286 18.6011C20.4508 17.845 20.18 16.6416 20.6137 15.6078C21.0214 14.6346 22.0076 13.9811 23.0684 13.9811L23.2168 13.985C23.5612 14.013 23.8776 13.7478 23.9193 13.3964C24.0252 12.4944 24.0264 11.5767 23.9245 10.6678ZM12 18.9181C8.17909 18.9181 5.08185 15.8209 5.08185 12.0001C5.08185 8.17937 8.1792 5.08213 12 5.08213C15.8207 5.08213 18.9181 8.17937 18.9181 12.0001C18.9181 13.297 18.5605 14.51 17.9395 15.5473L14.9103 12.518C15.1296 12.0009 15.2454 11.4403 15.2453 10.8618C15.2453 9.72887 14.8041 8.66387 14.0029 7.86291C13.202 7.06195 12.137 6.62084 11.0043 6.62084C10.6263 6.62084 10.25 6.67107 9.88605 6.77019C9.72662 6.81368 9.59626 6.94508 9.55381 7.10482C9.51043 7.26818 9.55931 7.4356 9.68698 7.56337C9.68698 7.56337 11.1825 9.07042 11.6829 9.57069C11.7353 9.62311 11.7352 9.74817 11.7278 9.79322L11.7232 9.82612C11.6727 10.3762 11.5755 11.0365 11.4952 11.2903C11.4844 11.301 11.4743 11.31 11.4633 11.321C11.4517 11.3326 11.4412 11.3437 11.43 11.3551C11.173 11.4376 10.5025 11.536 9.94365 11.586L9.94376 11.583L9.91864 11.5893C9.91418 11.5898 9.90587 11.5905 9.89487 11.5905C9.83446 11.5905 9.74562 11.5736 9.66487 11.4929C9.14404 10.9721 7.70715 9.54547 7.70715 9.54547C7.57824 9.41698 7.44601 9.38999 7.3579 9.38999C7.15249 9.38999 6.96857 9.53841 6.91066 9.75129C6.51511 11.2151 6.93443 12.7896 8.00524 13.8605C8.80641 14.6616 9.87152 15.1027 11.0044 15.1027C11.5829 15.1027 12.1435 14.9869 12.6605 14.7676L15.7227 17.8298C14.6476 18.5177 13.3709 18.9181 12 18.9181Z" fill="white"/>
</g>
<defs>
<linearGradient id="paint0_linear_4041_546" x1="0" y1="12" x2="24" y2="12" gradientUnits="userSpaceOnUse">
<stop stop-color="#890B31"/>
<stop offset="1" stop-color="#7E052A"/>
</linearGradient>
<clipPath id="clip0_4041_546">
<rect width="24" height="24" fill="white"/>
</clipPath>
</defs>
</svg>
