<svg width="24" height="24" viewBox="0 0 24 24" fill="none" xmlns="http://www.w3.org/2000/svg">
<g clip-path="url(#clip0_4041_458)">
<path fill-rule="evenodd" clip-rule="evenodd" d="M18.3726 24.0002C15.5976 24.0002 13.3383 21.7408 13.3383 18.9658C13.3383 16.1908 15.5976 13.9314 18.3726 13.9314C21.1476 13.9314 23.407 16.1908 23.407 18.9658C23.407 21.7408 21.1477 24.0002 18.3726 24.0002ZM18.0914 21.7681C17.6305 21.7189 17.1904 21.5979 16.868 21.4314C16.732 21.3611 16.6758 21.1924 16.7461 21.0518C16.8164 20.9111 16.9852 20.8596 17.1258 20.9299C17.7117 21.2346 18.8367 21.3564 19.4648 21.0611C19.7039 20.9486 19.8445 20.7939 19.8961 20.5877C20.0039 20.1143 19.9711 19.7721 19.7977 19.5658C19.5258 19.2424 18.8976 19.2236 18.382 19.2471C17.6977 19.2752 16.9383 19.2377 16.5117 18.7267C16.2211 18.3752 16.1508 17.8689 16.2961 17.2174C16.3805 16.8377 16.6383 16.5424 17.0367 16.3549C17.3382 16.2154 17.7084 16.148 18.0914 16.1375V15.7127C18.0914 15.558 18.218 15.4314 18.3726 15.4314C18.5273 15.4314 18.6539 15.558 18.6539 15.7127V16.161C19.1134 16.2109 19.552 16.3325 19.8726 16.5002C20.0086 16.5705 20.0648 16.7392 19.9945 16.8799C19.9242 17.0205 19.7555 17.0721 19.6148 17.0017C19.0289 16.697 17.9039 16.5799 17.2758 16.8705C17.0367 16.983 16.8961 17.1377 16.8445 17.3439C16.7367 17.8173 16.7695 18.1595 16.943 18.3658C17.2148 18.6892 17.843 18.708 18.3586 18.6846C19.043 18.6564 19.8023 18.6939 20.2289 19.2049C20.5195 19.5564 20.5898 20.0627 20.4445 20.7142C20.3601 21.0939 20.1023 21.3892 19.7039 21.5768C19.405 21.7134 19.0361 21.78 18.6539 21.7908V22.2189C18.6539 22.3736 18.5273 22.5002 18.3726 22.5002C18.218 22.5002 18.0914 22.3736 18.0914 22.2189V21.7681Z" fill="#EEDDCC"/>
<path fill-rule="evenodd" clip-rule="evenodd" d="M11.1889 21.7788C11.0651 21.7755 10.9416 21.77 10.8185 21.7626C9.41962 21.503 8.11343 20.4316 7.0887 18.6823C6.79174 18.1756 6.52743 17.6274 6.2974 17.0454C7.80069 17.4958 9.46321 17.7458 11.1889 17.7716L11.1889 21.7788ZM8.63919 21.4085C6.82014 20.9188 5.15343 19.9589 3.78513 18.5907C2.4169 17.2224 1.45704 15.5557 0.967326 13.7367C1.54504 14.5 2.36012 15.1993 3.39056 15.8032C4.05542 16.1927 4.78659 16.5285 5.56873 16.807C5.84723 17.5891 6.18296 18.3202 6.57243 18.9851C7.17648 20.0157 7.87587 20.8308 8.63919 21.4085ZM11.7845 17.7717C12.1946 17.7658 12.6033 17.7474 13.0091 17.7157C12.9154 18.1175 12.8658 18.5359 12.8658 18.9657C12.8658 19.8031 13.0541 20.5973 13.3902 21.3088C12.9879 21.5334 12.5758 21.6846 12.1573 21.7625C12.0333 21.77 11.909 21.7755 11.7846 21.7788L11.7845 17.7717ZM0.613333 11.5586C0.605985 11.4367 0.600524 11.3144 0.597202 11.1918H4.60414C4.63037 12.9157 4.88026 14.5765 5.33024 16.0783C4.74821 15.8483 4.20006 15.584 3.69339 15.287C1.94465 14.2626 0.873326 12.957 0.613333 11.5586ZM5.20482 11.1918H11.1889V17.171C9.35373 17.1428 7.5953 16.8544 6.03949 16.3361C5.52173 14.7817 5.23344 13.025 5.20482 11.1918ZM11.7845 11.1918H17.7735C17.7611 11.9796 17.7002 12.757 17.5924 13.5144C15.5564 13.8046 13.8752 15.213 13.1931 17.0955C12.7279 17.138 12.2567 17.1633 11.7845 17.1709L11.7845 11.1918ZM18.3694 11.1918H22.3764C22.3729 11.3236 22.367 11.455 22.3588 11.5861C22.187 12.4643 21.6931 13.3098 20.9003 14.0746C20.1428 13.6814 19.2832 13.4588 18.3726 13.4588C18.3154 13.4588 18.2584 13.46 18.2015 13.4618C18.302 12.7197 18.3579 11.96 18.3694 11.1918ZM22.0062 13.7327C21.9269 14.0267 21.835 14.3176 21.7309 14.605C21.6344 14.5305 21.5354 14.459 21.434 14.3908C21.6452 14.1771 21.8361 13.9575 22.0062 13.7327ZM0.596863 10.5961C0.600185 10.4701 0.605699 10.3445 0.613286 10.2193C0.87332 8.82095 1.94463 7.51533 3.69333 6.49095C4.19999 6.19397 4.74815 5.92963 5.33018 5.69959C4.87935 7.20436 4.62932 8.86862 4.6039 10.5961L0.596863 10.5961ZM6.03942 5.44186C7.59522 4.92363 9.35366 4.6352 11.1888 4.60702V10.5961H5.20458C5.23233 8.75922 5.52074 6.99902 6.03942 5.44186ZM11.7845 4.60702C13.6233 4.63516 15.3818 4.92377 16.9386 5.44117C17.4574 6.99851 17.7459 8.75895 17.7737 10.5961H11.7845L11.7845 4.60702ZM17.6403 5.69525C18.2247 5.92513 18.7754 6.18929 19.2849 6.486C21.0157 7.49988 22.0829 8.78932 22.3567 10.1714C22.3659 10.3125 22.3725 10.454 22.3763 10.5961H18.3693C18.3434 8.86685 18.0925 7.20104 17.6403 5.69525ZM0.968957 8.03903C1.45992 6.22138 2.42062 4.55671 3.78509 3.19223C5.15284 1.82448 6.82086 0.864781 8.63911 0.374914C7.87582 0.951894 7.17597 1.76536 6.57238 2.79283C6.18291 3.45768 5.84714 4.18882 5.56865 4.97097C4.78651 5.24948 4.05537 5.58525 3.39051 5.97473C2.36107 6.57812 1.54656 7.27668 0.968957 8.03903ZM10.7796 0.022766C10.9156 0.0140894 11.052 0.00781773 11.1888 0.00416369V4.00634C9.46315 4.03216 7.80061 4.28213 6.29732 4.73255C6.52734 4.15052 6.79168 3.60234 7.08864 3.09567C8.10385 1.36256 9.39539 0.294798 10.7796 0.022766ZM11.7845 0.00415039C11.922 0.0078177 12.059 0.0141027 12.1956 0.0228325C13.5819 0.294972 14.8702 1.36268 15.8896 3.09567C16.1869 3.60282 16.4515 4.15157 16.6816 4.73423C15.1768 4.28276 13.5123 4.03219 11.7845 4.00633L11.7845 0.00415039ZM14.3315 0.373686C16.1516 0.863166 17.8193 1.82332 19.1882 3.19225C20.5546 4.55862 21.5138 6.22256 22.0041 8.03868C21.4265 7.27646 20.6121 6.57806 19.5828 5.97477C18.9174 5.58495 18.1855 5.24894 17.4026 4.97029C17.1245 4.19029 16.7895 3.46108 16.4009 2.79784C15.7966 1.76687 15.0958 0.951449 14.3315 0.373686Z" fill="#EEDDCC"/>
</g>
<defs>
<clipPath id="clip0_4041_458">
<rect width="24" height="24" fill="white"/>
</clipPath>
</defs>
</svg>
